<?xml version="1.0" encoding="UTF-8"?>
<svg id="Layer_1" xmlns="http://www.w3.org/2000/svg" version="1.1" viewBox="0 0 6317.2 1277.6">
  <!-- Generator: Adobe Illustrator 30.4.0, SVG Export Plug-In . SVG Version: 2.1.4 Build 226)  -->
  <defs>
    <style>
      .st0 {
        fill: #efeae1;
      }

      .st1 {
        fill: #db8e2a;
      }
    </style>
  </defs>
  <g>
    <path class="st0" d="M1797,711.1c9.1,5.3,18.3,10.8,27.8,16.1l-27.4-16.7-.4.6h0Z"/>
    <path class="st0" d="M2138.5,650.7c-.4,20.1-6.5,38.8-6.5,38.8-3.6,38.1-32.9,61.4-72.1,66.3l-147.4-.4c-31.8,0-60.6-13.1-87.6-28.2h0c-9.5-5.3-18.7-10.8-27.8-16.1l.4-.6-19.2-11.7c-3.3-1.7-6.3-4.2-6.3-6.6v-235.4l-93.1-11.3v831.9l93,.2v-526.6l79.3,58.7c24.2,18,55.7,27.7,86.2,29.2,55.9,2.8,110.2,3.1,165.3-2.9,55.6-6,98.8-41.6,114-94.8,7.8-27.3,14.1-55.5,14.7-84.6l4.2-207.6-93,11.1-4.2,190.3v.3h.1Z"/>
    <path class="st0" d="M2947.3,520.5l-1.4-108.3-91.3-.4-.5,46.6h-369.7v-46.5c.1,0-92.5.2-92.5.2l1.4,207.9,13,102.7c17,78.2,73,115.9,153.8,115.8l251.6-.4c63.8,0,114-41.7,125.9-103.6l9.6-101.5h-90.6l-6.8,74.4c-2.7,29.6-31.7,49-62.2,49l-225.6.3c-37.5-1.4-61.6-24.1-67.4-59.4-8.9-53.8-9.9-108.4-10.6-164.4h451.4c3.9-1.3,11.9-8.9,11.8-12.5h.1Z"/>
    <path class="st0" d="M1427.4,472.7l-282.2-28.6c-20.4-2.1-37.2-13.2-45.6-31.9l-90-.2c2.7,73.6,37.6,108.1,112,115.7l271.8,27.7c24.2,2.5,42.3,19.5,45,43.2,4.6,39,4.7,77.4-.9,116.3-3.8,26.6-26,45.9-54,45.8h-242.9c-25.9-.2-48.4-16.7-50.6-41.7l-7.5-83.5-84.8.3,7.8,113.7c2.3,33.4,24.5,62.7,54.4,75.6,21.8,9.4,47.6,13.9,72.1,13.8l279.6-.4c56.5,0,99.3-37,110-92.4,11.7-60.7,10.5-122.8,2.8-185.1-6.7-54.3-42.7-82.7-97.2-88.3h.2Z"/>
    <path class="st0" d="M5217.4,412h-93.4v284.6c-41.2,26.8-83.1,57.9-133,58.2l-150.5,1c-37,.2-63.8-30.1-63.9-67.6l-.9-276.4-92.8.4.3,280.7c0,25.4,4,52.7,13,75.4,17.5,44.3,59.8,70.6,106.1,70.8l145.8.9c33.4.2,66.9-9.8,93.4-29.3l82.2-60.2.9,88.9,92.9-1.6v-425.8h-.1Z"/>
    <path class="st0" d="M6221.3,304.9l3.1,67.9h92.5c.7-37.7.5-73.7-5.4-110.3-8.4-52.1-47.4-91.8-100.5-93.2l-110.8-3.1c-42.2-1.2-82.5,5.3-116.5,30.4l-88,65c-8.7-50.5-46.3-90.3-97.2-91.9l-110.5-3.4c-36.6-1.1-75.4,0-105.3,21.2l-95.2,67.7-.8-87.4-92.4.2v204.3l92.5.4.6-63.5,43.6-25.8c28.9-17.1,63.1-32.3,97.6-32.3h118.7c29.7-.2,57,21.5,58.7,51.7l3.9,69.8,92,.3-.2-63.5c40.7-24.9,83.3-56.8,132.9-57.2l128.6-1.1c29.6-.3,56.9,22.5,58.3,53.9h-.2Z"/>
    <path class="st0" d="M3514.9,707.6c-7.6,26.7-28,47.4-57.7,47.3l-213.8-.3c-32.8,0-61.2-20.9-64.4-52.9l-10.4-104.7-.6-185h-92.8l1.4,216.5c3.9,37.8,6.7,74.3,17.5,109.7,18.2,59.7,66.9,99.2,130.3,99.2h259.2c58.4,0,102.3-38,116.1-93.5,10.7-43.2,12.5-85.6,14.3-132.5l-90.3.3-8.7,95.7v.2h-.1Z"/>
    <path class="st0" d="M715.2,168.9l-167.4-1.1c-24-.2-51.6,8.4-70.6,22l-91.5,65.4-.4-87.5-93.3.5v204.5h93.2v-63.5l71.2-39.8c21.7-12.2,49.9-19,75.2-19h135.9c30.9,0,60.3,20.9,61.8,52.4l3.2,69.9h92.7c.8-37.9.6-74-5.6-110.9-8.9-53.2-49.5-92.7-104.5-93h0Z"/>
    <polygon class="st0" points="3909.9 372.6 3909.9 248.8 4093.6 248.8 4093.8 167.9 3909.9 167.9 3909.9 0 3815.8 0 3815.7 167.9 3700 168.1 3700 248.8 3815.8 248.8 3815.8 372.9 3909.9 372.6"/>
    <path class="st0" d="M2496.9,297.7c4.4-30.8,35.8-48.5,67.2-48.4l211.5.2c31.4,0,61.7,19,66.3,50.8l10.7,72.6,90.9-.5c-3.8-66.8-15.5-146.4-70.5-180.6-25.6-15.9-58-23.1-89-23.1h-228.1c-31.3-.2-63.7,6.4-89.3,22.8-31.4,20.2-54.3,53-59.4,89.2l-13,92.2,91.9-.4,10.8-74.8h0Z"/>
    <path class="st0" d="M3483.6,169.1l-258.7.2c-63,0-112.6,39.1-130.5,98.5-10.3,34.3-14.2,68.6-16.4,105l92.2-.4c3.8-61.2,10.9-120.6,73.2-120.6l211.8-.2c28.8,0,52.7,20.1,55.9,46l9.3,75.3,90.4-.7c-1.7-42.9-3.7-82.1-16.2-121.5-15.7-49.4-58.3-81.7-111.1-81.7h.1Z"/>
    <path class="st0" d="M1094.4,372.5l4.9-80.3c1.5-25.2,23.5-45.6,49.9-45.5h231.3c25.4,0,46.4,18.5,48.4,40.7l7.3,79h85.3l-8.6-109.6c-8.5-51.2-48-87.5-102.1-87.5l-290.4-.3c-47.8,0-84.8,29.8-99.6,73.7-14.2,42-14.7,85.2-13.6,130.3l87.2-.4h0Z"/>
    <path class="st0" d="M4092.4,758.5l-132.6-.6c-28.6-.4-49.6-18.4-49.6-48.4l-.3-297.5h-94.1l.9,332.1c.1,55.7,41.8,93.4,95.2,98.4,62.6,5.9,121.6-6.1,181.6-24.3l-.9-59.8h-.2,0Z"/>
    <polygon class="st0" points="0 412.1 0 838.5 99.8 837.7 99.8 412.1 0 412.1"/>
    <polygon class="st0" points="292 412.2 292.1 839.1 385.5 837.8 385.4 412 292 412.2"/>
    <polygon class="st0" points="732 412.2 732.1 839.1 825.5 837.8 825.4 412 732 412.2"/>
    <polygon class="st0" points="4211.7 412.2 4211.9 839.1 4305.1 837.8 4305 412.1 4211.7 412.2"/>
    <polygon class="st0" points="5394 412.2 5394.1 838.7 5487 838.7 5486.9 411.8 5394 412.2"/>
    <polygon class="st0" points="5809 412.2 5809.1 839.1 5902 837.7 5901.9 412 5809 412.2"/>
    <polygon class="st0" points="6224 412.2 6224.1 839.1 6317.1 837.8 6317 412.1 6224 412.2"/>
    <path class="st0" d="M4552.9,166.7l-77.1-.3c-33.6,0-65.6,8.9-90.3,32.3l-80.1,75.9-.7-106.5-92.8-.3-.4,204.9h93.2v-52.7c37.1-25.4,78.1-55.2,125.4-55.9l122.8-1.9v-95.6h0Z"/>
    <polygon class="st0" points="0 12.8 0 372.8 99.8 370.7 99.8 12.8 0 12.8"/>
    <polygon class="st0" points="4683 372.9 4776 372.6 4776 168.2 4683 168.1 4683 372.9"/>
    <polygon class="st0" points="5217.5 372.6 5217.4 167.9 5124 168.2 5124 372.9 5217.5 372.6"/>
  </g>
  <g>
    <path class="st0" d="M2162.6,191.8h0c-11.5-8.4-26.2-14.1-41.6-18h0c16.2,4.6,29.9,10.6,41.6,18Z"/>
    <path class="st0" d="M2029.4,166.8l48.1.4c-26.8-2-48.1-.4-48.1-.4Z"/>
    <path class="st0" d="M1901.4,174.3c-6.5,1.2-13.2,3.3-19.9,6,6.6-2.2,13.2-4.2,19.9-6h0Z"/>
    <path class="st0" d="M1901.4,174.3c2-.4,4-.9,5.8-1.5-1.9.5-3.9,1-5.8,1.5Z"/>
    <polygon class="st0" points="2029.4 166.8 2029.4 166.8 2029.4 166.8 2029.4 166.8"/>
    <path class="st0" d="M1772.1,365.4v-56.2l83.1-44.6c27.7-14.9,61.1-15.2,92.7-14.7l110.4,1.5c33.5.4,66.6,21.8,72.1,54.6l9.2,55.3,93.6,11.2c-5.3-76-13.6-141.6-66.5-177.9-1.3-.8-2.7-1.7-4.1-2.7-11.7-7.4-25.4-13.4-41.6-18h0c-14.6-3.6-29.8-5.6-43.5-6.7l-48.1-.4h0l-65.5-.5c-19.7-.2-38.3,2.2-56.6,6.6-1.9.6-3.8,1.1-5.8,1.5-6.6,1.7-13.2,3.7-19.9,6-15.9,6.5-31.8,16.4-44.1,25.1h0l-65.4,50.6-.6-88.2-92.6.3v208.3l93.1-11.1h.1Z"/>
    <path class="st0" d="M2162.6,191.8c1.4,1,2.7,1.9,4.1,2.7-1.3-.9-2.7-1.8-4.1-2.7Z"/>
  </g>
  <path class="st1" d="M2382,392.4l-102.5-13.7-163.6-20.2-69.7-8.1,32-77-75.9-6-29.7,40.4-29.5-39.7c-25.6.2-49.3,3.1-74.3,10.5l30.5,71.6-105.6,12.6-161.9,20.1-69.4,9.5,336.8,42.4-113.1,265.3c-1,1.1-4.5.3-7.8-1.4l19.2,11.7,175.2-233.3,159.3,212.3s6.1-18.7,6.5-38.8l-92.4-215.6,335.9-42.7h0Z"/>
  <path class="st1" d="M1878,181.5l-103.2-137.3-3.6-6-3.3,7,2.5,2.6,67.1,157.6c12.4-8.8,28.2-18.7,44.1-25.1-1.2.4-2.4.8-3.6,1.2h0Z"/>
  <path class="st1" d="M2176.4,38.8l-98.6,128.4h-.4c13.7,1,28.9,3,43.5,6.6l55.4-135s.1,0,.1,0Z"/>
</svg>